<svg width="100%" height="100%" viewBox="0 0 1276 827" fill="none" xmlns="http://www.w3.org/2000/svg">
<path className="circle-wrapper" fill-rule="evenodd" clip-rule="evenodd" d="M783.658 598C715.858 733.762 575.568 827 413.5 827C185.13 827 0 641.87 0 413.5C0 185.13 185.13 0 413.5 0C588.391 0 737.923 108.577 798.366 262H707.648C652.688 155.509 541.597 82.6996 413.501 82.6996C230.805 82.6996 82.7009 230.804 82.7009 413.5C82.7009 596.195 230.805 744.3 413.501 744.3C527.882 744.3 628.704 686.248 688.111 598H783.658Z" fill="black"/>
<path d="M566.8 493C566.8 505.933 562.733 516.067 554.6 523.4C546.733 530.467 536.267 534 523.2 534H463.6V391.6H520.8C534.533 391.6 545.333 395.2 553.2 402.4C560.933 409.6 564.8 419.333 564.8 431.6C564.8 438.8 562.8 445.267 558.8 451C555.467 455.533 551.6 458.867 547.2 461C552.533 463.533 556.867 467 560.2 471.4C564.6 477.267 566.8 484.467 566.8 493ZM539 491.6C539 480 532.8 474.2 520.4 474.2H491.4V509.2H520.4C532.8 509.2 539 503.333 539 491.6ZM537 432.8C537 421.867 530.867 416.4 518.6 416.4H491.4V449.2H518.6C530.867 449.2 537 443.733 537 432.8Z" fill="black"/>
<path d="M613.641 490C613.641 505.467 621.241 513.2 636.441 513.2C645.641 513.2 653.507 509.933 660.041 503.4L675.841 518.8C670.107 524.533 664.507 528.6 659.041 531C652.774 533.8 645.174 535.2 636.241 535.2C629.574 535.2 623.574 534.4 618.241 532.8C612.241 530.933 607.107 528.133 602.841 524.4C598.174 520.133 594.574 514.667 592.041 508C589.374 500.667 588.041 491.933 588.041 481.8C588.041 465.133 592.241 452 600.641 442.4C608.774 433.2 619.707 428.6 633.441 428.6C647.574 428.6 658.774 433.333 667.041 442.8C674.907 451.867 678.841 463.733 678.841 478.4V490H613.641ZM653.241 472.2C653.107 468.067 652.307 464.333 650.841 461C647.641 453.8 641.841 450.2 633.441 450.2C625.041 450.2 619.241 453.8 616.041 461C614.574 464.333 613.774 468.067 613.641 472.2H653.241Z" fill="black"/>
<path d="M735.411 534C725.544 534 717.878 530.867 712.411 524.6C707.611 519.133 705.211 512.333 705.211 504.2V452.6H694.211V432.8H705.211V402H731.211V432.8H749.611V452.6H731.211V502.6C731.211 508.867 734.211 512 740.211 512H749.611V534H735.411Z" fill="black"/>
<path d="M825.937 534V525C819.271 531.667 810.737 535 800.337 535C788.737 535 779.871 531.933 773.737 525.8C768.004 519.8 765.137 512 765.137 502.4C765.137 493.6 768.071 486.467 773.937 481C780.204 475.133 789.137 472.2 800.737 472.2H825.337V467C825.337 456.067 818.871 450.6 805.937 450.6C797.537 450.6 790.871 453.467 785.937 459.2L769.337 443C778.137 433.4 790.671 428.6 806.937 428.6C836.537 428.6 851.337 440.867 851.337 465.4V534H825.937ZM825.337 490H804.737C795.004 490 790.137 493.933 790.137 501.8C790.137 509.8 795.137 513.8 805.137 513.8C812.604 513.8 818.071 512.133 821.537 508.8C824.071 506.4 825.337 502 825.337 495.6V490Z" fill="black"/>
<path d="M982.8 493C982.8 505.933 978.733 516.067 970.6 523.4C962.733 530.467 952.267 534 939.2 534H879.6V391.6H936.8C950.533 391.6 961.333 395.2 969.2 402.4C976.933 409.6 980.8 419.333 980.8 431.6C980.8 438.8 978.8 445.267 974.8 451C971.467 455.533 967.6 458.867 963.2 461C968.533 463.533 972.867 467 976.2 471.4C980.6 477.267 982.8 484.467 982.8 493ZM955 491.6C955 480 948.8 474.2 936.4 474.2H907.4V509.2H936.4C948.8 509.2 955 503.333 955 491.6ZM953 432.8C953 421.867 946.867 416.4 934.6 416.4H907.4V449.2H934.6C946.867 449.2 953 443.733 953 432.8Z" fill="black"/>
<path d="M1038.64 534C1028.64 534 1020.91 530.867 1015.44 524.6C1010.64 519.133 1008.24 512.333 1008.24 504.2V391.6H1034.24V502.6C1034.24 508.867 1037.31 512 1043.44 512H1053.44V534H1038.64Z" fill="black"/>
<path d="M1154.17 481.8C1154.17 500.6 1150.24 514.133 1142.37 522.4C1138.77 526.133 1134.51 529.133 1129.57 531.4C1123.71 533.933 1117.17 535.2 1109.97 535.2C1102.77 535.2 1096.31 533.933 1090.57 531.4C1085.64 529.267 1081.37 526.267 1077.77 522.4C1069.91 514.133 1065.97 500.6 1065.97 481.8C1065.97 463.133 1069.91 449.667 1077.77 441.4C1081.37 437.533 1085.64 434.533 1090.57 432.4C1096.31 429.867 1102.77 428.6 1109.97 428.6C1117.17 428.6 1123.71 429.867 1129.57 432.4C1134.51 434.667 1138.77 437.667 1142.37 441.4C1150.24 449.667 1154.17 463.133 1154.17 481.8ZM1128.17 481.8C1128.17 475.4 1127.84 470.533 1127.17 467.2C1126.24 462.533 1124.57 459 1122.17 456.6C1119.11 453.533 1115.04 452 1109.97 452C1105.04 452 1101.04 453.533 1097.97 456.6C1095.57 459 1093.91 462.533 1092.97 467.2C1092.31 470.533 1091.97 475.4 1091.97 481.8C1091.97 488.2 1092.31 493.133 1092.97 496.6C1093.91 501.267 1095.57 504.8 1097.97 507.2C1101.04 510.267 1105.04 511.8 1109.97 511.8C1115.04 511.8 1119.11 510.267 1122.17 507.2C1124.57 504.8 1126.24 501.267 1127.17 496.6C1127.84 493.133 1128.17 488.2 1128.17 481.8Z" fill="black"/>
<path d="M1260.77 530.2C1260.77 542.867 1256.63 553.2 1248.37 561.2C1239.97 569.333 1228.83 573.4 1214.97 573.4C1199.23 573.4 1186.63 568.867 1177.17 559.8L1193.37 543.4C1198.83 548.733 1205.63 551.4 1213.77 551.4C1220.97 551.4 1226.43 549.133 1230.17 544.6C1233.23 540.733 1234.77 535.8 1234.77 529.8V519.2C1228.5 526.133 1220.23 529.6 1209.97 529.6C1199.57 529.6 1191.3 526.533 1185.17 520.4C1180.63 515.867 1177.63 510 1176.17 502.8C1175.5 499.733 1175.03 496.067 1174.77 491.8C1174.63 488.6 1174.57 484.333 1174.57 479C1174.57 473.667 1174.63 469.4 1174.77 466.2C1175.03 462.067 1175.5 458.4 1176.17 455.2C1177.63 448.133 1180.63 442.333 1185.17 437.8C1191.3 431.667 1199.63 428.6 1210.17 428.6C1220.57 428.6 1229.03 432.267 1235.57 439.6V429.8H1260.77V530.2ZM1234.77 479C1234.77 470.6 1233.83 464.4 1231.97 460.4C1229.3 454.8 1224.5 452 1217.57 452C1210.63 452 1205.9 454.8 1203.37 460.4C1202.3 462.667 1201.5 465.533 1200.97 469C1200.7 471.667 1200.57 475 1200.57 479C1200.57 483 1200.7 486.333 1200.97 489C1201.5 492.467 1202.3 495.4 1203.37 497.8C1205.9 503.4 1210.63 506.2 1217.57 506.2C1224.5 506.2 1229.3 503.4 1231.97 497.8C1233.03 495.4 1233.77 492.467 1234.17 489C1234.57 486.333 1234.77 483 1234.77 479Z" fill="black"/>
<path d="M349.925 450.729L324.658 436.124C320.626 433.795 315.878 432.72 311.218 433.257C290.88 435.587 274.125 454.492 264 480.027C263.821 480.475 263.642 480.923 263.463 481.282C256.743 498.485 244.737 505.115 232.82 506.907C221.889 508.609 213.825 517.927 213.825 528.948V529.217C213.825 537.191 218.036 544.538 225.025 548.57L276.365 578.227C283.353 582.169 291.776 582.169 298.675 578.227L350.014 548.57C357.003 544.628 361.214 537.191 361.214 529.217V469.992C361.125 462.108 356.914 454.761 349.925 450.729Z" fill="black"/>
<path d="M281.475 411.756C284.432 411.756 286.851 409.337 286.851 406.38C286.851 403.423 284.432 401.004 281.475 401.004C278.518 401.004 276.099 403.423 276.099 406.38C276.099 409.337 278.518 411.756 281.475 411.756Z" fill="black"/>
<path d="M273.322 395.358C279.325 395.358 284.163 390.52 284.163 384.517C284.163 378.514 279.325 373.675 273.322 373.675C267.319 373.675 262.48 378.514 262.48 384.517C262.48 390.52 267.319 395.358 273.322 395.358Z" fill="black"/>
<path d="M283.985 285.242C289.629 285.242 294.199 280.672 294.199 275.028C294.199 269.383 289.629 264.903 283.985 264.903C278.34 264.903 273.771 269.472 273.771 275.117C273.771 280.762 278.34 285.242 283.985 285.242Z" fill="black"/>
<path d="M296.169 251.106C301.007 251.106 304.86 247.253 304.86 242.415C304.86 237.577 301.007 233.724 296.169 233.724C291.331 233.724 287.478 237.577 287.478 242.415C287.478 247.164 291.331 251.106 296.169 251.106Z" fill="black"/>
<path d="M261.585 250.03C269.559 250.03 276.1 243.579 276.1 235.515C276.1 227.451 269.649 221 261.585 221C253.611 221 247.07 227.451 247.07 235.515C247.07 243.489 253.611 250.03 261.585 250.03Z" fill="black"/>
<path d="M230.852 307.131H212.036C205.764 307.131 201.105 302.024 200.478 296.2C200.209 290.108 205.854 285 211.678 285H241.693C247.786 285 252.893 290.108 252.893 296.2V296.559C252.983 304.354 252.893 312.238 252.893 320.033V386.157C252.893 393.773 251.28 401.03 247.786 407.929C243.844 415.724 237.393 421.459 230.135 426.118C225.118 429.343 220.01 432.569 214.993 435.794C211.524 438.024 207.827 440.178 204.463 442.607C203.215 443.705 202.033 444.887 200.934 446.135C199.768 447.777 198.738 449.545 197.845 451.374C197.066 453.463 196.534 455.604 196.166 457.799C195.917 461.089 196.088 464.492 196.088 467.781V527.364C196.088 530.276 196.029 533.248 196.247 536.182C196.647 538.353 197.25 540.471 198.015 542.537C198.871 544.265 199.856 545.889 200.995 547.462C202.016 548.626 203.116 549.727 204.279 550.749C207.469 553.058 210.993 554.964 214.366 557.021L253.072 580.675L269.737 590.889C272.597 592.619 275.393 594.54 278.391 596.013C280.493 596.807 282.653 597.377 284.871 597.77C286.433 597.883 287.985 597.883 289.548 597.77C291.74 597.381 293.876 596.819 295.956 596.039C299.529 594.297 302.878 591.999 306.294 589.903C319.196 582.108 332.008 574.224 344.91 566.428C350.555 563.024 356.2 559.529 361.844 556.125C364.651 554.441 367.601 552.829 370.245 550.903C371.435 549.863 372.56 548.74 373.602 547.552C374.795 545.904 375.818 544.202 376.702 542.383C377.504 540.263 378.05 538.088 378.425 535.858C378.684 532.498 378.51 529.066 378.51 525.751V466.168C378.51 463.26 378.569 460.353 378.352 457.445C377.96 455.318 377.374 453.242 376.631 451.215C375.716 449.375 374.663 447.599 373.47 445.954C372.496 444.841 371.463 443.81 370.346 442.839C369.717 442.377 369.051 441.928 368.385 441.529C359.873 436.063 351.361 430.687 342.85 425.222C333.352 419.129 326.095 409.811 323.228 398.79C321.973 394.042 321.704 389.293 321.704 384.544V296.2C321.704 290.108 326.812 285 332.904 285H362.92C369.191 285 373.851 290.108 374.119 296.2C374.388 302.293 368.743 307.4 362.92 307.4H344.104V379.795C344.104 383.111 343.983 386.487 344.239 389.824C344.63 391.995 345.225 394.115 345.983 396.182C346.897 398.022 347.951 399.798 349.144 401.443C350.071 402.503 351.053 403.488 352.108 404.419C354.578 406.166 357.26 407.764 359.784 409.363C366.862 413.843 374.03 418.143 380.929 422.803C389.799 428.806 396.429 437.586 399.386 447.89C400.73 452.37 401.088 457.029 401.088 461.688V533.546C401.088 538.115 400.372 542.954 398.848 547.344C396.967 552.899 394.189 557.558 390.516 562.128C387.29 566.16 383.079 569.385 378.689 572.073C372.688 575.655 366.688 579.327 360.688 582.999L360.68 583.004C351.451 588.649 342.222 594.204 332.994 599.849C326.274 603.97 319.464 608.092 312.745 612.213C310.146 613.826 307.458 615.259 304.591 616.514C294.646 620.725 282.729 621.263 272.515 617.32C266.064 614.722 260.419 610.959 254.506 607.375C245.815 602.089 237.213 596.802 228.522 591.516C220.105 586.412 211.776 581.307 203.448 576.203L203.435 576.195C196.984 572.252 189.995 568.489 185.067 562.576C178.079 554.243 174.136 544.208 174.047 533.367V471.096C174.047 463.57 173.599 455.954 175.48 448.607C178.168 438.124 184.709 429.433 193.4 423.161C195.998 421.279 198.865 419.577 201.553 417.875C206.033 415.007 210.423 412.23 214.903 409.363C217.372 407.77 219.981 406.249 222.418 404.483C223.688 403.37 224.89 402.171 226.006 400.904C227.172 399.261 228.202 397.493 229.095 395.665C229.841 393.664 230.361 391.614 230.726 389.515C231.043 385.543 230.852 381.472 230.852 377.466V307.131Z" fill="black"/>
</svg>
